<svg width="20" height="21" viewBox="0 0 20 21" fill="none" xmlns="http://www.w3.org/2000/svg">
<path d="M19.6875 10.5C19.6875 15.8516 15.3125 20.1875 10 20.1875C4.64844 20.1875 0.3125 15.8516 0.3125 10.5C0.3125 5.1875 4.64844 0.8125 10 0.8125C15.3125 0.8125 19.6875 5.1875 19.6875 10.5ZM10 12.4531C8.98438 12.4531 8.20312 13.2734 8.20312 14.25C8.20312 15.2656 8.98438 16.0469 10 16.0469C10.9766 16.0469 11.7969 15.2656 11.7969 14.25C11.7969 13.2734 10.9766 12.4531 10 12.4531ZM8.28125 6.00781L8.55469 11.3203C8.59375 11.5938 8.78906 11.75 9.02344 11.75H10.9375C11.1719 11.75 11.3672 11.5938 11.4062 11.3203L11.6797 6.00781C11.7188 5.73438 11.4844 5.5 11.2109 5.5H8.75C8.47656 5.5 8.24219 5.73438 8.28125 6.00781Z" fill="#45AAF2"/>
</svg>
